<svg width="4096" height="256" viewBox="0 0 4096 256" fill="none" xmlns="http://www.w3.org/2000/svg">
<path d="M1661 108.547C1658.45 108.547 1655.92 109.05 1653.56 110.026C1651.21 111.002 1649.07 112.434 1647.26 114.238C1645.46 116.042 1644.03 118.184 1643.05 120.541C1642.07 122.898 1641.57 125.425 1641.57 127.976C1641.57 130.528 1642.07 133.054 1643.05 135.412C1644.03 137.769 1645.46 139.911 1647.26 141.715C1649.07 143.519 1651.21 144.95 1653.56 145.927C1655.92 146.903 1658.45 147.406 1661 147.406C1663.55 147.406 1666.08 146.903 1668.44 145.927C1670.79 144.95 1672.93 143.519 1674.74 141.715C1676.54 139.911 1677.97 137.769 1678.95 135.412C1679.93 133.054 1680.43 130.528 1680.43 127.976C1680.43 125.425 1679.93 122.898 1678.95 120.541C1677.97 118.184 1676.54 116.042 1674.74 114.238C1672.93 112.434 1670.79 111.002 1668.44 110.026C1666.08 109.05 1663.55 108.547 1661 108.547ZM1606.57 166.626L1602.29 165.536C1570.33 157.461 1552 143.754 1552 127.94C1552 112.126 1570.33 98.4191 1602.29 90.344L1606.57 89.2631L1607.78 93.5141C1611.02 104.666 1615.16 115.535 1620.16 126.014L1621.08 127.949L1620.16 129.884C1615.15 140.359 1611.01 151.229 1607.78 162.384L1606.57 166.626ZM1600.3 100.272C1576.01 107.094 1561.1 117.53 1561.1 127.94C1561.1 138.34 1576.01 148.777 1600.3 155.608C1603.27 146.16 1606.85 136.918 1611.03 127.94C1606.85 118.964 1603.26 109.721 1600.3 100.272ZM1715.43 166.626L1714.22 162.366C1710.99 151.215 1706.84 140.348 1701.83 129.875L1700.91 127.94L1701.83 126.005C1706.84 115.528 1710.98 104.658 1714.22 93.505L1715.43 89.254L1719.72 90.3349C1751.67 98.41 1770 112.117 1770 127.94C1770 143.763 1751.67 157.461 1719.72 165.536L1715.43 166.626ZM1710.97 127.94C1715.33 137.378 1718.93 146.652 1721.7 155.608C1746 148.777 1760.9 138.34 1760.9 127.94C1760.9 117.53 1745.99 107.103 1721.7 100.272C1718.74 109.721 1715.15 118.964 1710.97 127.94ZM1600.23 100.227L1599.02 95.9848C1590.04 64.3203 1592.77 41.6301 1606.5 33.7094C1619.97 25.9341 1641.6 35.1173 1664.26 58.3798L1667.35 61.5499L1664.26 64.7199C1656.21 73.0912 1648.85 82.1044 1642.26 91.6702L1641.03 93.4233L1638.9 93.6049C1627.31 94.5187 1615.81 96.3717 1604.52 99.1458L1600.23 100.227ZM1617.45 40.0042C1615.02 40.0042 1612.87 40.531 1611.05 41.5756C1602.02 46.7803 1600.42 64.8744 1606.65 89.2904C1616.32 87.137 1626.13 85.6168 1636.01 84.7396C1641.71 76.6362 1647.94 68.9168 1654.65 61.6316C1640.48 47.834 1627.06 40.0042 1617.45 40.0042ZM1704.55 224.959C1704.55 224.959 1704.55 224.959 1704.55 224.959C1691.61 224.959 1674.99 215.213 1657.74 197.5L1654.65 194.33L1657.74 191.16C1665.79 182.786 1673.14 173.77 1679.73 164.201L1680.96 162.448L1683.08 162.266C1694.68 161.357 1706.18 159.507 1717.48 156.734L1721.77 155.653L1722.98 159.904C1731.95 191.551 1729.23 214.25 1715.5 222.161C1712.16 224.048 1708.39 225.013 1704.55 224.959ZM1667.35 194.248C1681.52 208.046 1694.94 215.876 1704.55 215.876H1704.55C1706.98 215.876 1709.14 215.349 1710.95 214.304C1719.98 209.1 1721.59 190.996 1715.35 166.58C1705.67 168.737 1695.86 170.257 1685.98 171.131C1680.29 179.24 1674.06 186.963 1667.35 194.248ZM1721.77 100.227L1717.48 99.1458C1706.18 96.3637 1694.68 94.5106 1683.08 93.6049L1680.96 93.4233L1679.73 91.6702C1673.15 82.1014 1665.79 73.0878 1657.74 64.7199L1654.65 61.5499L1657.74 58.3798C1680.39 35.1264 1702.01 25.9432 1715.5 33.7094C1729.23 41.6301 1731.96 64.3203 1722.98 95.9757L1721.77 100.227ZM1685.98 84.7396C1696.35 85.6843 1706.21 87.2194 1715.35 89.2904C1721.59 64.8744 1719.98 46.7803 1710.95 41.5756C1701.97 36.389 1685.11 44.3369 1667.35 61.6316C1674.06 68.9172 1680.28 76.6365 1685.98 84.7396ZM1617.45 224.959C1613.62 225.015 1609.84 224.049 1606.5 222.161C1592.77 214.25 1590.04 191.56 1599.02 159.904L1600.22 155.653L1604.51 156.734C1615 159.377 1626.57 161.239 1638.89 162.266L1641.03 162.448L1642.24 164.201C1648.83 173.768 1656.19 182.785 1664.24 191.16L1667.33 194.33L1664.24 197.5C1647 215.213 1630.38 224.959 1617.45 224.959ZM1606.65 166.58C1600.41 190.996 1602.02 209.1 1611.05 214.304C1620.02 219.418 1636.87 211.534 1654.65 194.248C1647.94 186.958 1641.71 179.235 1636.01 171.131C1626.13 170.258 1616.32 168.738 1606.65 166.58ZM1661 172.285C1653.52 172.285 1645.84 171.958 1638.15 171.322L1636.01 171.14L1634.79 169.387C1630.43 163.134 1626.34 156.704 1622.52 150.112C1618.71 143.516 1615.18 136.764 1611.93 129.875L1611.02 127.94L1611.93 126.005C1615.18 119.116 1618.71 112.364 1622.52 105.768C1626.28 99.2639 1630.42 92.7784 1634.79 86.4927L1636.01 84.7396L1638.15 84.5579C1653.36 83.2681 1668.65 83.2681 1683.86 84.5579L1685.99 84.7396L1687.21 86.4927C1695.92 99.001 1703.57 112.218 1710.07 126.005L1710.99 127.94L1710.07 129.875C1703.58 143.67 1695.93 156.888 1687.21 169.387L1685.99 171.14L1683.86 171.322C1676.17 171.958 1668.48 172.285 1661 172.285ZM1641.04 162.438C1654.49 163.447 1667.51 163.447 1680.97 162.438C1688.48 151.459 1695.14 139.927 1700.91 127.94C1695.15 115.946 1688.48 104.413 1680.96 93.4414C1667.67 92.4332 1654.33 92.4332 1641.04 93.4414C1633.51 104.411 1626.84 115.944 1621.09 127.94C1626.86 139.925 1633.53 151.457 1641.04 162.438Z" fill="#61AFEF"/>
<path fill-rule="evenodd" clip-rule="evenodd" d="M2076 28H2276V228H2076V28ZM2128.59 195.134L2143.89 185.872C2146.85 191.107 2149.53 195.537 2155.97 195.537C2162.15 195.537 2166.04 193.121 2166.04 183.724V119.819H2184.84V183.99C2184.84 203.456 2173.43 212.317 2156.78 212.317C2141.74 212.317 2133.02 204.532 2128.59 195.134ZM2210.35 184.26L2195.05 193.12C2200.55 203.995 2211.83 212.32 2229.28 212.32C2247.14 212.32 2260.43 203.057 2260.43 186.14C2260.43 170.434 2251.43 163.453 2235.46 156.606L2230.76 154.592C2222.7 151.102 2219.21 148.818 2219.21 143.18C2219.21 138.616 2222.7 135.125 2228.21 135.125C2233.58 135.125 2237.07 137.407 2240.29 143.18L2254.92 133.781C2248.75 122.907 2240.16 118.745 2228.21 118.745C2211.43 118.745 2200.69 129.485 2200.69 143.582C2200.69 158.887 2209.68 166.137 2223.24 171.908L2227.94 173.923C2236.53 177.681 2241.63 179.964 2241.63 186.408C2241.63 191.778 2236.67 195.672 2228.88 195.672C2219.62 195.672 2214.38 190.839 2210.35 184.26Z" fill="#E5C07B"/>
<path d="M3648.47 94.6875C3650.08 94.6875 3651.46 95.258 3652.6 96.3989L3672.52 116.321C3676.7 120.501 3676.7 124.679 3672.52 128.842L3652.62 148.764C3651.46 149.916 3650.08 150.492 3648.45 150.492C3646.86 150.476 3645.48 149.9 3644.32 148.764C3643.19 147.63 3642.61 146.248 3642.6 144.635C3642.61 143.022 3643.19 141.641 3644.34 140.49L3662.24 122.59L3644.32 104.673C3643.19 103.539 3642.61 102.157 3642.61 100.544C3642.61 98.9313 3643.19 97.5505 3644.32 96.4149C3645.48 95.2633 3646.86 94.6875 3648.47 94.6875Z" fill="#E5C07B"/>
<path d="M3726.45 138.794C3728.08 138.794 3729.48 139.37 3730.63 140.522C3731.78 141.673 3732.36 143.056 3732.36 144.684C3732.36 146.313 3731.78 147.711 3730.63 148.863C3729.48 150.014 3728.08 150.59 3726.45 150.59V150.582H3688.02V150.59C3686.39 150.59 3685.01 150.014 3683.86 148.863C3682.71 147.711 3682.13 146.313 3682.13 144.684C3682.13 143.056 3682.71 141.673 3683.86 140.522C3685.01 139.37 3686.39 138.794 3688.02 138.794V138.786H3726.45V138.794Z" fill="#E5C07B"/>
<path fill-rule="evenodd" clip-rule="evenodd" d="M3611 46.0764C3611 42.7205 3613.72 40 3617.08 40H3807.88C3811.23 40 3813.95 42.7205 3813.95 46.0764V208.924C3813.95 212.279 3811.23 215 3807.88 215H3617.08C3613.72 215 3611 212.279 3611 208.924V46.0764ZM3623.15 63.0903C3623.15 61.7479 3624.24 60.6597 3625.58 60.6597H3799.37C3800.71 60.6597 3801.8 61.7479 3801.8 63.0903V200.417C3801.8 201.759 3800.71 202.847 3799.37 202.847H3625.58C3624.24 202.847 3623.15 201.759 3623.15 200.417V63.0903Z" fill="#E5C07B"/>
<path d="M1401.55 174.326C1401.44 174.55 1401.33 174.729 1401.55 174.326V174.326ZM1494.45 141.885C1486.95 141.885 1479.55 143.6 1472.82 146.919C1470.62 142.482 1468.35 138.604 1467.97 135.695C1467.53 132.302 1467.04 130.288 1467.56 126.261C1468.08 122.234 1470.43 116.529 1470.4 116.119C1470.36 115.709 1469.87 113.658 1465.06 113.62C1460.25 113.583 1456.12 114.553 1455.63 115.82C1454.78 118.137 1454.12 120.519 1453.65 122.943C1452.8 127.305 1444.04 142.892 1439.08 151.021C1437.44 147.851 1436.06 145.055 1435.76 142.817C1435.32 139.424 1434.83 137.411 1435.35 133.383C1435.88 129.356 1438.22 123.651 1438.19 123.241C1438.15 122.831 1437.66 120.78 1432.86 120.743C1428.06 120.705 1423.91 121.675 1423.43 122.943C1422.94 124.21 1422.42 127.193 1421.45 130.065C1420.48 132.936 1408.81 158.889 1405.76 165.638C1404.19 169.069 1402.85 171.828 1401.88 173.692C1401.73 173.991 1401.62 174.177 1401.55 174.326C1401.66 174.14 1401.73 173.953 1401.73 174.028C1400.91 175.631 1400.43 176.526 1400.43 176.526V176.564C1399.79 177.757 1399.09 178.838 1398.75 178.838C1398.53 178.838 1398.04 175.706 1398.86 171.418C1400.61 162.394 1404.75 148.373 1404.72 147.889C1404.68 147.628 1405.5 145.204 1401.99 143.899C1398.6 142.668 1397.37 144.719 1397.07 144.719C1396.77 144.719 1396.55 145.465 1396.55 145.465C1396.55 145.465 1400.32 129.655 1389.32 129.655C1382.46 129.655 1372.91 137.187 1368.22 144.011C1365.27 145.614 1358.9 149.082 1352.18 152.773L1344.47 157.024C1344.28 156.838 1344.13 156.651 1343.94 156.465C1330.59 142.221 1305.95 132.153 1307 113.024C1307.37 106.051 1309.79 87.7421 1354.38 65.5181C1390.93 47.3212 1420.14 52.3179 1425.17 63.4299C1432.41 79.2776 1409.55 108.773 1371.6 113.024C1357.14 114.627 1349.54 109.034 1347.64 106.946C1345.66 104.746 1345.36 104.634 1344.61 105.044C1343.38 105.715 1344.17 107.654 1344.61 108.81C1345.73 111.756 1350.39 116.976 1358.34 119.587C1365.31 121.861 1382.27 123.129 1402.77 115.187C1425.81 106.312 1443.74 81.5895 1438.48 60.8943C1433.12 39.8635 1398.25 32.9651 1365.28 44.6737C1345.63 51.6467 1324.38 62.6096 1309.1 76.8911C1290.94 93.8947 1288.04 108.698 1289.23 114.888C1293.48 136.851 1323.76 151.17 1335.87 161.76L1334.19 162.692C1328.11 165.713 1305.04 177.794 1299.26 190.547C1292.73 205.015 1300.34 215.381 1305.33 216.798C1320.91 221.124 1336.87 213.33 1345.44 200.54C1354.02 187.75 1352.97 171.045 1349.02 163.438C1348.99 163.326 1348.91 163.252 1348.87 163.14C1353.35 160.489 1357.86 157.904 1362.41 155.384C1360.92 159.411 1359.84 164.258 1359.28 171.269C1358.61 179.472 1362 190.099 1366.4 194.276C1368.34 196.103 1370.68 196.14 1372.14 196.14C1377.29 196.14 1379.6 191.889 1382.17 186.818C1385.34 180.628 1388.14 173.431 1388.14 173.431C1388.14 173.431 1384.63 192.896 1394.22 192.896C1397.72 192.896 1401.23 188.384 1402.79 186.072V186.11C1402.79 186.11 1402.87 185.96 1403.05 185.662C1403.43 185.103 1403.61 184.767 1403.61 184.767V184.655C1405.03 182.232 1408.12 176.676 1412.79 167.503C1418.83 155.645 1424.6 140.841 1424.6 140.841C1425.16 144.093 1425.93 147.307 1426.91 150.462C1427.95 154.004 1430.15 157.882 1431.91 161.648C1430.49 163.587 1429.63 164.706 1429.63 164.706C1429.63 164.736 1429.65 164.758 1429.67 164.78C1428.55 166.272 1427.28 167.875 1425.98 169.441C1421.21 175.109 1415.54 181.598 1414.79 183.462C1413.9 185.662 1414.12 187.303 1415.84 188.571C1417.1 189.54 1419.34 189.689 1421.69 189.503C1425.98 189.204 1429 188.16 1430.45 187.489C1433.14 186.528 1435.67 185.198 1437.99 183.537C1442.65 180.106 1445.48 175.184 1445.22 168.696C1445.07 165.116 1443.91 161.536 1442.5 158.18C1442.91 157.584 1443.36 156.95 1443.77 156.316C1448.62 149.076 1452.99 141.525 1456.85 133.712C1457.41 136.963 1458.18 140.177 1459.17 143.332C1460.06 146.352 1461.81 149.671 1463.42 152.915C1456.48 158.546 1452.19 165.071 1450.71 169.359C1447.95 177.302 1450.11 180.882 1454.18 181.702C1456 182.075 1458.61 181.217 1460.55 180.397C1463.43 179.435 1466.15 178.04 1468.6 176.258C1473.26 172.827 1477.77 168.017 1477.47 161.492C1477.35 158.546 1476.53 155.6 1475.45 152.766C1481.31 150.305 1488.91 148.963 1498.61 150.081C1519.37 152.505 1523.44 165.481 1522.65 170.888C1521.87 176.295 1517.51 179.316 1516.05 180.21C1514.6 181.105 1514.15 181.441 1514.26 182.112C1514.45 183.082 1515.12 183.044 1516.35 182.821C1518.07 182.522 1527.24 178.421 1527.65 168.39C1528.25 155.712 1516.05 141.766 1494.46 141.878L1494.45 141.885ZM1334.41 195.842C1327.55 203.337 1317.94 206.171 1313.8 203.784C1309.36 201.204 1311.11 190.174 1319.57 182.187C1324.72 177.339 1331.35 172.865 1335.76 170.105C1336.76 169.509 1338.22 168.614 1340.01 167.532C1340.15 167.439 1340.3 167.352 1340.45 167.271C1340.79 167.048 1341.16 166.861 1341.53 166.637C1344.62 177.973 1341.65 187.967 1334.41 195.834V195.842ZM1384.51 161.76C1382.13 167.614 1377.1 182.53 1374.04 181.747C1371.43 181.076 1369.82 169.703 1373.51 158.516C1375.38 152.885 1379.33 146.173 1381.68 143.563C1385.45 139.35 1389.58 138.007 1390.55 139.685C1391.86 141.885 1386.01 158.106 1384.51 161.76ZM1425.9 181.523C1424.9 182.045 1423.97 182.381 1423.52 182.12C1423.18 181.933 1423.93 181.225 1423.93 181.225C1423.93 181.225 1429.11 175.669 1431.16 173.133C1432.35 171.642 1433.73 169.889 1435.23 167.95C1435.23 168.136 1435.26 168.323 1435.26 168.547C1435.22 175.221 1428.81 179.733 1425.9 181.523H1425.9ZM1457.82 174.252C1457.08 173.73 1457.19 171.977 1459.69 166.533C1460.66 164.408 1462.89 160.828 1466.77 157.397C1467.21 158.695 1467.45 160.052 1467.48 161.424C1467.44 169.814 1461.44 172.947 1457.82 174.252Z" fill="#C678DD"/>
<path d="M3189.27 96.1933L3189.71 96.4863C3194.87 99.8945 3198.57 104.569 3201.01 110.217C3201.59 111.093 3201.2 111.58 3200.03 111.872L3198.05 112.378C3193.58 113.53 3190.03 114.499 3185.62 115.651L3183.1 116.306C3182.2 116.53 3181.95 116.436 3180.98 115.339L3180.85 115.183C3179.47 113.625 3178.44 112.584 3176.62 111.655L3176.27 111.482C3170.14 108.464 3164.2 109.34 3158.65 112.943C3152.02 117.228 3148.62 123.557 3148.71 131.445C3148.81 139.235 3154.17 145.662 3161.86 146.733C3168.48 147.609 3174.03 145.272 3178.41 140.306C3179.29 139.235 3180.07 138.066 3181.04 136.703H3162.25C3160.2 136.703 3159.72 135.437 3160.4 133.782L3160.74 132.987C3161.99 130.075 3163.93 125.89 3165.19 123.497L3165.47 122.982C3165.8 122.398 3166.49 121.61 3167.8 121.61H3199.14C3200.54 117.151 3202.83 112.937 3205.87 108.951C3212.98 99.6027 3221.55 94.7335 3233.14 92.689C3243.07 90.9359 3252.42 91.9097 3260.89 97.655C3268.59 102.913 3273.36 110.022 3274.62 119.37C3276.28 132.516 3272.48 143.227 3263.42 152.381C3257 158.905 3249.11 162.995 3240.05 164.845C3237.42 165.332 3234.8 165.429 3232.26 165.721C3223.4 165.526 3215.32 162.995 3208.5 157.152C3203.71 153.008 3200.41 147.915 3198.77 141.985C3197.61 144.309 3196.25 146.518 3194.68 148.583C3187.66 157.834 3178.51 163.579 3166.92 165.137C3157.38 166.403 3148.52 164.553 3140.73 158.71C3133.52 153.257 3129.43 146.051 3128.36 137.093C3127.1 126.478 3130.21 116.935 3136.64 108.561C3143.55 99.505 3152.71 93.7601 3163.91 91.7152C3172.89 90.0902 3181.5 91.0921 3189.27 96.1933H3189.27ZM3235.59 110.147L3235.28 110.217C3226.23 112.262 3220.38 118.007 3218.24 127.16C3216.49 134.755 3220.19 142.448 3227.2 145.564C3232.56 147.901 3237.91 147.609 3243.07 144.98C3250.76 140.988 3254.95 134.755 3255.44 126.381C3255.34 125.115 3255.34 124.141 3255.15 123.167C3253.41 113.636 3244.73 108.197 3235.59 110.147ZM3120.47 127.939C3120.86 127.939 3121.06 128.231 3121.06 128.621L3120.86 130.958C3120.86 131.347 3120.47 131.639 3120.18 131.639L3098.95 131.542C3098.57 131.542 3098.47 131.25 3098.66 130.958L3100.03 128.523C3100.22 128.231 3100.61 127.939 3101 127.939H3120.47ZM3122.62 118.98C3123.01 118.98 3123.2 119.273 3123.1 119.565L3122.32 121.902C3122.23 122.291 3121.84 122.486 3121.45 122.486L3075.39 122.583C3075 122.583 3074.9 122.389 3075.1 122.096L3077.14 119.467C3077.34 119.175 3077.82 118.98 3078.21 118.98H3122.62ZM3127.68 110.022C3128.07 110.022 3128.17 110.314 3127.97 110.606L3126.32 113.138C3126.12 113.43 3125.64 113.722 3125.34 113.722L3090.09 113.625C3089.7 113.625 3089.61 113.43 3089.8 113.138L3091.85 110.509C3092.04 110.217 3092.53 110.022 3092.92 110.022H3127.68Z" fill="#56B6C2"/>
<path fill-rule="evenodd" clip-rule="evenodd" d="M3566 75.5508C3565.98 73.3821 3563.03 71.4621 3557.27 69.3555C3551.6 67.2787 3533.84 60.2996 3516.01 53.2932L3515.97 53.2756L3515.96 53.2744L3515.96 53.2737L3515.94 53.2631C3497.97 46.2051 3479.96 39.1266 3474.18 37.0096C3462.66 32.7878 3457.96 32.9622 3444.42 37.8206C3431.82 42.3427 3375.45 64.4278 3358.5 71.0667L3355.4 72.2797C3349.82 74.4671 3347.03 76.4996 3347 78.6563V100.796C3347 103.005 3350.05 105.343 3355.85 108.117C3361.84 110.98 3381.92 119.305 3401.34 127.357C3419.53 134.899 3437.14 142.203 3442.07 144.556C3452.25 149.423 3459.41 149.489 3472.3 142.77C3478.91 139.324 3498.05 131.099 3516.7 123.081L3516.71 123.08C3534.43 115.461 3551.73 108.03 3557.42 105.063C3563.37 101.962 3566 99.5614 3565.99 97.3757L3566 75.5508ZM3464.43 63.478L3483.26 61.5231L3468.66 56.0559L3472.53 46.7698L3458.21 51.4577L3443.02 45.5173L3447.89 54.498L3431.67 60.3485L3453.41 62.3025L3460.22 73.6204L3464.43 63.478ZM3459.09 110.728L3423.95 96.1533L3474.31 88.4242L3459.09 110.728ZM3437.29 77.5922C3437.29 71.8313 3425.24 67.1605 3410.37 67.1605C3395.51 67.1605 3383.46 71.8313 3383.46 77.5922C3383.46 83.3536 3395.51 88.0244 3410.37 88.0244C3425.24 88.0244 3437.29 83.3545 3437.29 77.5922ZM3505.51 64.2956L3535.31 76.0721L3505.54 87.8373L3502.31 89.1017L3472.54 77.3373L3505.51 64.2956Z" fill="#E06C75"/>
<path d="M3348.28 113.33C3353.49 116.164 3364.39 120.829 3394.49 133.382C3413.29 141.225 3432.72 149.399 3437.66 151.545C3444.77 154.634 3447.93 155.531 3452.81 155.847C3460.8 156.365 3464.88 155.288 3477.87 149.236C3483.75 146.495 3502.99 138.003 3520.64 130.365C3547.81 118.602 3559.05 113.525 3564.65 110.245C3565.54 111.04 3565.99 111.847 3566 112.692L3565.99 134.517C3566 136.702 3563.37 139.103 3557.42 142.204C3551.73 145.171 3534.43 152.603 3516.71 160.221L3516.7 160.222C3498.05 168.239 3478.91 176.464 3472.3 179.911C3459.41 186.63 3452.25 186.564 3442.07 181.697C3437.14 179.344 3419.53 172.04 3401.34 164.498C3381.92 156.446 3361.84 148.121 3355.85 145.258C3350.05 142.484 3347 140.146 3347 137.937V115.797C3347.01 114.962 3347.44 114.145 3348.28 113.33Z" fill="#E06C75"/>
<path d="M3394.49 170.914C3364.39 158.361 3353.49 153.697 3348.28 150.863C3347.44 151.677 3347.01 152.494 3347 153.33V175.469C3347 177.678 3350.05 180.016 3355.85 182.79C3361.84 185.652 3381.9 193.972 3401.32 202.021L3401.34 202.03C3419.53 209.572 3437.14 216.876 3442.07 219.229C3452.25 224.097 3459.41 224.163 3472.3 217.444C3478.91 213.997 3498.05 205.772 3516.7 197.754L3516.71 197.753C3534.43 190.135 3551.73 182.704 3557.42 179.736C3563.37 176.635 3566 174.235 3565.99 172.049L3566 150.224C3565.99 149.379 3565.54 148.572 3564.65 147.777C3559.05 151.057 3547.81 156.135 3520.64 167.897C3502.99 175.536 3483.75 184.027 3477.87 186.768C3464.88 192.82 3460.8 193.897 3452.81 193.38C3447.93 193.063 3444.77 192.167 3437.66 189.078C3432.72 186.931 3413.29 178.757 3394.49 170.914Z" fill="#E06C75"/>
<path d="M243.474 117.307L138.688 12.526C132.657 6.49132 122.869 6.49132 116.831 12.526L95.0714 34.2854L122.674 61.8883C129.089 59.7208 136.444 61.1749 141.557 66.288C146.695 71.434 148.139 78.8524 145.919 85.2874L172.52 111.89C178.956 109.673 186.382 111.107 191.523 116.256C198.707 123.437 198.707 135.076 191.523 142.262C184.337 149.449 172.697 149.449 165.508 142.262C160.104 136.853 158.769 128.917 161.505 122.26L136.697 97.4515L136.694 162.736C138.492 163.626 140.135 164.8 141.557 166.214C148.742 173.396 148.742 185.036 141.557 192.227C134.371 199.411 122.727 199.411 115.551 192.227C108.367 185.036 108.367 173.397 115.551 166.215C117.273 164.493 119.319 163.129 121.571 162.202V96.3087C119.315 95.388 117.268 94.0231 115.551 92.2953C110.108 86.8596 108.799 78.873 111.588 72.1896L84.3783 44.9767L12.5281 116.822C6.49062 122.863 6.49062 132.651 12.5281 138.687L117.316 243.469C123.349 249.505 133.135 249.505 139.175 243.469L243.473 139.173C249.509 133.136 249.509 123.342 243.473 117.307" fill="#E06C75"/>
<path fill-rule="evenodd" clip-rule="evenodd" d="M2688.03 237L2796.71 127.662L2759.65 90.3819L2791.81 57.7051C2794.2 55.2731 2795.54 51.9969 2795.54 48.5837V38.4786C2795.54 35.2293 2794.25 32.113 2791.95 29.8154C2789.68 27.5448 2786.61 26.2564 2783.4 26.2274L2718.62 25.6426C2714.34 25.6039 2710.31 27.6745 2707.86 31.179L2707.44 31.7649C2706.55 33.0348 2705.9 34.446 2705.51 35.9292L2688.68 19L2676.6 31.2303L2675.88 30.4391C2673.47 27.78 2670.07 26.2358 2666.48 26.1723L2600.31 25.0019C2597.04 24.944 2593.88 26.2153 2591.56 28.5254C2589.28 30.7952 2588 33.8793 2588 37.096V47.8366C2588 51.3251 2589.41 54.6649 2591.92 57.0944C2593.98 59.0983 2596.65 60.3466 2599.49 60.6592L2599.54 109.201L2580 128.969L2599.58 148.545L2599.63 205.058C2599.64 208.502 2601 211.803 2603.44 214.238L2604.93 215.727C2607.37 218.165 2610.67 219.534 2614.12 219.534H2627.09C2630.57 219.534 2633.91 218.136 2636.35 215.654L2649.11 202.696H2649.12L2651.4 200.371L2688.03 237ZM2645.34 193.696H2645.35L2785.39 51.3903C2786.13 50.642 2786.54 49.6339 2786.54 48.5837V38.4786C2786.54 37.6162 2786.2 36.7891 2785.59 36.1793C2784.99 35.5767 2784.17 35.2348 2783.32 35.2271L2718.54 34.6422C2717.22 34.6303 2715.98 35.2674 2715.22 36.3457L2714.81 36.9316C2714.34 37.6044 2714.09 38.4062 2714.09 39.2279L2714.09 47.8196C2714.09 48.71 2714.39 49.575 2714.93 50.2776L2715.11 50.5056C2715.87 51.4784 2717.03 52.0476 2718.27 52.0476H2719.92C2720.67 52.0439 2721.41 52.2292 2722.07 52.5835C2722.2 52.6542 2722.33 52.7317 2722.46 52.8157C2723.07 53.2314 2723.58 53.7921 2723.92 54.4458C2723.99 54.5774 2724.06 54.7127 2724.11 54.8514C2724.12 54.8606 2724.12 54.8699 2724.12 54.8792C2724.45 55.7173 2724.53 56.6343 2724.34 57.5154C2724.18 58.2866 2723.82 59.0007 2723.3 59.5908C2723.23 59.6751 2723.15 59.7569 2723.07 59.8359L2666.78 114.175C2666.18 114.758 2665.43 115.162 2664.61 115.342C2664.56 115.354 2664.5 115.365 2664.45 115.375C2664.36 115.392 2664.27 115.406 2664.18 115.416C2663.61 115.485 2663.03 115.443 2662.47 115.295C2662.26 115.238 2662.05 115.165 2661.85 115.076C2661.64 114.985 2661.44 114.881 2661.25 114.764C2660.01 113.995 2659.22 112.68 2659.11 111.211C2659.1 111.098 2659.1 110.984 2659.1 110.87L2659.67 56.7717C2659.68 55.5287 2660.19 54.4077 2661.01 53.5975C2661.83 52.7873 2662.96 52.2878 2664.2 52.2878H2667.06C2667.28 52.2878 2667.5 52.2691 2667.72 52.2324C2668.42 52.1143 2669.08 51.8107 2669.63 51.3509C2669.73 51.2648 2669.83 51.1732 2669.93 51.0764L2670.26 50.7334C2670.42 50.5643 2670.57 50.3821 2670.7 50.1894C2671.15 49.5315 2671.39 48.7506 2671.39 47.9451L2671.39 40.3138C2671.39 39.4061 2671.06 38.5298 2670.45 37.8528L2669.21 36.4838C2668.47 35.6656 2667.42 35.1904 2666.32 35.1709L2600.15 34.0005C2599.31 33.9857 2598.5 34.311 2597.91 34.9023C2597.33 35.4833 2597 36.2727 2597 37.096V47.8366C2597 48.8913 2597.43 49.901 2598.18 50.6355C2598.89 51.3211 2599.83 51.7141 2600.81 51.7358L2604.07 51.8073C2605.25 51.8366 2606.37 52.3267 2607.2 53.1729C2608.02 54.0191 2608.48 55.1542 2608.48 56.3361L2608.63 205.049C2608.63 206.109 2609.05 207.125 2609.8 207.874L2611.29 209.363C2612.04 210.113 2613.06 210.534 2614.12 210.534H2627.09C2628.16 210.534 2629.19 210.104 2629.94 209.34L2645.34 193.696Z" fill="#98C379"/>
<path d="M1832 28L1848.08 208.009L1920.08 228L1992.29 207.978L2008.37 28H1832ZM1965.51 177.509L1920.22 190.054L1874.99 177.446L1871.89 142.732H1894.06L1895.63 160.393L1920.25 167.161L1920.31 167.286L1944.86 160.656L1947.46 132.018H1895.84L1894 109.696H1949.42L1951.41 86.9286H1866.91L1865.07 65.0536H1975.56L1965.51 177.509Z" fill="#E06C75"/>
<path fill-rule="evenodd" clip-rule="evenodd" d="M1125.67 21.128C1133.88 19.7238 1142.19 19.0128 1150.52 19.0025C1159.6 18.952 1168.66 19.663 1177.62 21.128C1184.45 21.8304 1190.81 24.9316 1195.57 29.8806C1200.33 34.8296 1203.18 41.306 1203.62 48.1593V97.683C1203.65 101.126 1203 104.541 1201.71 107.733C1200.42 110.925 1198.51 113.831 1196.1 116.285C1193.68 118.74 1190.81 120.694 1187.64 122.036C1184.46 123.378 1181.06 124.082 1177.62 124.107H1125.67C1117.13 124.25 1108.98 127.694 1102.92 133.718C1096.86 139.742 1093.37 147.877 1093.18 156.417V180.171H1075.3C1060.19 180.171 1051.36 169.201 1047.66 153.809C1042.78 136.528 1042.78 118.233 1047.66 100.953C1049.1 93.4322 1053.15 86.6611 1059.09 81.8359C1065.04 77.0107 1072.49 74.4419 1080.15 74.5834H1151.68V67.9735H1099.67V48.1593C1099.67 33.1488 1103.66 25.0129 1125.67 21.128ZM1127.95 36.5431C1126.3 35.4734 1124.37 34.9179 1122.4 34.9473C1119.79 34.976 1117.3 36.0384 1115.47 37.9018C1113.64 39.7653 1112.62 42.2778 1112.64 44.8894C1112.65 46.8545 1113.24 48.7734 1114.34 50.4021C1115.44 52.0309 1116.99 53.2961 1118.81 54.0369C1120.63 54.7777 1122.63 54.9607 1124.56 54.5626C1126.48 54.1646 1128.24 53.2034 1129.62 51.8013C1131 50.3992 1131.93 48.6194 1132.29 46.6881C1132.65 44.7568 1132.43 42.7611 1131.66 40.9547C1130.89 39.1484 1129.59 37.6128 1127.95 36.5431Z" fill="#E5C07B"/>
<path fill-rule="evenodd" clip-rule="evenodd" d="M1210.11 97.6819V74.59L1229.62 74.5822C1244.76 74.5822 1251.89 85.9024 1255.63 100.944C1260.97 118.161 1260.97 136.591 1255.63 153.808C1250.37 169.628 1244.74 180.17 1229.62 180.17H1151.68V186.779H1203.62V206.609C1203.62 221.612 1190.71 229.242 1177.62 233.033C1160.71 238.322 1142.58 238.322 1125.67 233.033C1111.92 228.993 1099.67 220.693 1099.67 206.601V157.085C1099.7 150.158 1102.43 143.516 1107.29 138.578C1112.15 133.641 1118.75 130.8 1125.67 130.661H1177.62C1186.25 130.438 1194.46 126.877 1200.52 120.726C1206.57 114.576 1210.01 106.315 1210.11 97.6819ZM1186.44 201.599C1184.79 200.527 1182.86 199.97 1180.89 199.999V199.991C1179.6 199.998 1178.33 200.258 1177.14 200.759C1175.95 201.26 1174.87 201.99 1173.96 202.909C1173.05 203.827 1172.34 204.916 1171.85 206.112C1171.37 207.308 1171.12 208.588 1171.13 209.879C1171.13 211.847 1171.71 213.772 1172.8 215.409C1173.89 217.046 1175.44 218.321 1177.26 219.071C1179.08 219.822 1181.08 220.013 1183.01 219.622C1184.94 219.231 1186.71 218.275 1188.09 216.875C1189.48 215.476 1190.41 213.696 1190.78 211.763C1191.15 209.83 1190.93 207.831 1190.16 206.021C1189.39 204.211 1188.09 202.672 1186.44 201.599Z" fill="#E5C07B"/>
<path d="M740 169.556H695.178V75.3791H710.272V157.987H740V169.556ZM683.468 171.829L666.178 163.312C667.71 162.048 669.166 160.656 670.507 159.059C677.888 150.478 681.553 137.645 681.553 120.75C681.553 89.5536 669.319 74 644.84 74C632.862 74 623.489 77.9203 616.772 85.8376C609.455 94.4827 605.726 107.252 605.726 124.083C605.726 140.645 608.982 152.751 615.508 160.528C621.497 167.449 630.474 170.974 642.516 170.974C646.972 170.974 651.097 170.437 654.826 169.313L677.377 182.479L683.558 171.842L683.468 171.829ZM627.409 150.67C623.553 144.553 621.688 134.707 621.688 121.133C621.688 97.3942 628.878 85.5566 643.307 85.5566C650.829 85.5566 656.409 88.4171 659.934 94.0741C663.726 100.255 665.654 109.972 665.654 123.406C665.654 147.286 658.401 159.328 644.035 159.328C636.45 159.328 630.933 156.467 627.345 150.81L627.409 150.67ZM599.201 143.493C599.201 151.474 596.276 158.063 590.351 163.107C584.503 168.228 576.713 170.82 566.804 170.82C557.558 170.82 548.709 167.896 540 162.035L544.061 153.926C551.506 157.655 558.222 159.519 564.352 159.519C570.009 159.519 574.466 158.255 577.658 155.79C580.85 153.262 582.779 149.737 582.779 145.281C582.779 139.688 578.858 134.899 571.733 130.915C565.144 127.263 551.914 119.741 551.914 119.741C544.725 114.493 541.2 108.9 541.2 99.6545C541.2 92.0054 543.856 85.8886 549.181 81.2277C554.57 76.439 561.415 74.1149 569.932 74.1149C578.406 74.0413 586.713 76.4712 593.812 81.1L590.16 89.2088C584.454 86.6962 578.299 85.3627 572.065 85.2885C567.212 85.2885 563.484 86.4888 560.891 88.8129C558.299 91.137 556.703 94.0613 556.703 97.7262C556.703 103.319 560.7 108.108 568.004 112.22C574.721 115.872 588.219 123.598 588.219 123.598C595.6 128.782 599.264 134.375 599.264 143.48L599.201 143.493Z" fill="#D19A66"/>
<path fill-rule="evenodd" clip-rule="evenodd" d="M2478.85 229.746C2481.14 229.955 2483.45 229.541 2485.54 228.538L2527.74 208.252C2529.92 207.208 2531.75 205.571 2533.04 203.529C2534.31 201.508 2534.99 199.172 2535 196.786C2535 196.762 2535 196.738 2535 196.714L2535 196.187C2535 196.208 2535 196.228 2535 196.249V59.5492C2535 59.5697 2535 59.5902 2535 59.6106V59.1201C2535 59.1079 2535 59.0958 2535 59.0836C2535 58.8302 2534.99 58.5774 2534.98 58.3255C2534.85 56.1778 2534.18 54.0932 2533.02 52.2672C2531.73 50.227 2529.89 48.5929 2527.72 47.5534L2485.54 27.2674C2484.14 26.5923 2482.64 26.1828 2481.11 26.0497C2480.02 25.9537 2478.92 25.9963 2477.84 26.1815C2475.24 26.624 2472.84 27.8587 2470.98 29.7159C2471.17 29.5231 2471.37 29.3418 2471.59 29.1724C2471.38 29.3551 2471.18 29.545 2470.98 29.7418L2390.17 103.414L2354.98 76.7266C2353.39 75.5149 2351.43 74.8994 2349.43 74.9878C2347.44 75.076 2345.53 75.8625 2344.06 77.2097L2332.78 87.4588C2332.58 87.6345 2332.4 87.8249 2332.21 88.0225C2330.69 89.6992 2329.9 91.9113 2330.01 94.1725C2330.12 96.4337 2331.12 98.5586 2332.8 100.08L2363.31 127.9L2332.8 155.718C2331.12 157.239 2330.12 159.364 2330.01 161.625C2329.9 163.886 2330.69 166.099 2332.21 167.775C2332.4 167.973 2332.58 168.163 2332.78 168.339L2344.06 178.588C2345.53 179.93 2347.43 180.713 2349.42 180.801C2351.41 180.889 2353.37 180.277 2354.96 179.071L2390.16 152.378L2470.98 226.063C2470.99 226.072 2471 226.081 2471.01 226.09C2471.23 226.314 2471.47 226.529 2471.71 226.735C2473.46 228.231 2475.58 229.23 2477.87 229.618C2478.19 229.674 2478.52 229.716 2478.85 229.746ZM2483.75 81.4062L2422.45 127.894L2483.75 174.388V81.4062Z" fill="#61AFEF"/>
<path d="M808 28L824.05 208L896.075 228L968.288 207.975L984.363 28H808.013H808ZM949.425 86.875H864.95L866.963 109.488H947.425L941.363 177.262L896.075 189.812L850.85 177.262L847.762 142.587H869.925L871.5 160.212L896.088 166.838L896.138 166.825L920.738 160.188L923.287 131.562H846.775L840.825 64.8H951.412L949.438 86.875H949.425Z" fill="#61AFEF"/>
<path d="M383.62 237.999C380.589 237.999 377.759 237.191 375.132 235.776L348.25 219.809C344.208 217.586 346.229 216.777 347.442 216.373C352.899 214.554 353.909 214.15 359.568 210.916C360.175 210.511 360.984 210.714 361.589 211.118L382.206 223.447C383.014 223.851 384.024 223.851 384.631 223.447L465.274 176.759C466.083 176.355 466.487 175.547 466.487 174.536V81.3613C466.487 80.3508 466.083 79.5424 465.274 79.1382L384.631 32.6518C383.822 32.2476 382.812 32.2476 382.206 32.6518L301.562 79.1389C300.754 79.5431 300.349 80.5537 300.349 81.3621V174.536C300.349 175.345 300.754 176.355 301.562 176.759L323.593 189.492C335.518 195.555 342.995 188.481 342.995 181.408V89.4455C342.995 88.2329 344.006 87.0202 345.421 87.0202H355.729C356.942 87.0202 358.154 88.0308 358.154 89.4455V181.407C358.154 197.374 349.463 206.671 334.304 206.671C329.656 206.671 326.018 206.671 315.711 201.618L294.488 189.492C289.234 186.46 286 180.801 286 174.737V81.5642C286 75.501 289.234 69.8421 294.488 66.8098L375.132 20.1221C380.184 17.2926 387.056 17.2926 392.109 20.1221L472.752 66.8098C478.007 69.8414 481.241 75.5003 481.241 81.5642V174.738C481.241 180.801 478.007 186.46 472.752 189.492L392.109 236.181C389.481 237.394 386.45 238 383.62 238V237.999ZM408.48 173.929C373.11 173.929 365.834 157.761 365.834 144.017C365.834 142.804 366.845 141.592 368.26 141.592H378.769C379.982 141.592 380.993 142.4 380.993 143.613C382.61 154.324 387.258 159.58 408.682 159.58C425.66 159.58 432.936 155.74 432.936 146.645C432.936 141.389 430.915 137.549 404.438 134.921C382.408 132.698 368.664 127.848 368.664 110.265C368.664 93.8926 382.407 84.1915 405.448 84.1915C431.318 84.1915 444.052 93.0841 445.669 112.487C445.669 113.093 445.467 113.7 445.062 114.306C444.658 114.71 444.052 115.114 443.445 115.114H432.936C431.925 115.114 430.915 114.306 430.712 113.295C428.287 102.18 422.022 98.5417 405.448 98.5417C386.855 98.5417 384.631 105.009 384.631 109.86C384.631 115.721 387.258 117.54 412.32 120.773C437.18 124.007 448.902 128.656 448.902 146.038C448.7 163.824 434.149 173.929 408.48 173.929Z" fill="#98C379"/>
<path d="M3963.8 211.926C3958.01 207.719 3915.4 174.776 3918.13 119.611C3920.9 60.4389 3955.67 31.3643 3962.39 26.1048C3966.78 21.4295 3966.92 19.6753 3967.22 15C3967.32 15.2208 3967.42 15.5376 3967.51 15.9441L3967.51 15.5858C3967.51 15.5858 3970.72 23.7664 3974.08 28.4417C3974.78 29.9286 3976.74 31.9533 3979.5 34.7998C3988.95 44.541 4007.73 63.9054 4016.89 104.268C4026.09 158.04 3998.93 190.879 3984.74 203.955L3984.75 204.057C3984.75 204.057 3984.72 204.072 3984.67 204.1C3984.62 204.125 3984.55 204.16 3984.47 204.205C3980.9 207.467 3978.2 209.45 3977.17 210.174C3975.76 211.902 3974.57 213.966 3974.08 216.331C3972.33 223.929 3973.5 240 3973.5 240L3967.51 237.953C3967.51 237.953 3967.9 221.55 3963.8 211.926Z" fill="#98C379"/>
<path d="M2979.04 93.3469C2988.24 93.3469 2997.06 89.6938 3003.56 83.1913C3010.06 76.6887 3013.71 67.8694 3013.71 58.6734C3013.71 49.4775 3010.06 40.6581 3003.56 34.1556C2997.06 27.6531 2988.24 24 2979.04 24L2909.69 24C2900.5 24 2891.69 27.6509 2885.19 34.1497C2878.69 40.6484 2875.04 49.4625 2875.04 58.6531C2875.04 67.8437 2878.69 76.6579 2885.19 83.1566C2891.69 89.6553 2900.5 93.3063 2909.69 93.3063C2900.5 93.3063 2891.68 96.9593 2885.18 103.462C2878.67 109.964 2875.02 118.784 2875.02 127.98C2875.02 137.176 2878.67 145.995 2885.18 152.498C2891.68 159 2900.5 162.653 2909.69 162.653C2902.84 162.649 2896.13 164.679 2890.43 168.485C2884.72 172.292 2880.28 177.705 2877.65 184.039C2875.02 190.373 2874.33 197.344 2875.66 204.071C2877 210.798 2880.29 216.978 2885.14 221.83C2889.99 226.682 2896.16 229.988 2902.89 231.33C2909.61 232.672 2916.59 231.989 2922.92 229.368C2929.26 226.748 2934.68 222.307 2938.49 216.607C2942.31 210.907 2944.34 204.205 2944.35 197.347V93.3469H2979.04ZM2979.04 93.3469C2972.19 93.3469 2965.49 95.3792 2959.79 99.187C2954.09 102.995 2949.65 108.407 2947.03 114.739C2944.4 121.071 2943.72 128.038 2945.05 134.76C2946.39 141.483 2949.69 147.657 2954.54 152.503C2959.38 157.35 2965.56 160.65 2972.28 161.987C2979 163.324 2985.97 162.638 2992.3 160.015C2998.63 157.393 3004.05 152.951 3007.85 147.252C3011.66 141.554 3013.69 134.854 3013.69 128C3013.69 118.81 3010.04 109.996 3003.54 103.498C2997.04 96.9992 2988.23 93.348 2979.04 93.3469Z" fill="#C678DD"/>
</svg>
